<svg xmlns="http://www.w3.org/2000/svg" viewBox="0 0 762 762" fill="none" shape-rendering="auto" width="512" height="512"><metadata xmlns:rdf="http://www.w3.org/1999/02/22-rdf-syntax-ns#" xmlns:xsi="http://www.w3.org/2001/XMLSchema-instance" xmlns:dc="http://purl.org/dc/elements/1.1/" xmlns:dcterms="http://purl.org/dc/terms/"><rdf:RDF><rdf:Description><dc:title>Adventurer</dc:title><dc:creator>Lisa Wischofsky</dc:creator><dc:source xsi:type="dcterms:URI">https://www.figma.com/community/file/1184595184137881796</dc:source><dcterms:license xsi:type="dcterms:URI">https://creativecommons.org/licenses/by/4.0/</dcterms:license><dc:rights>Remix of „Adventurer” (https://www.figma.com/community/file/1184595184137881796) by „Lisa Wischofsky”, licensed under „CC BY 4.0” (https://creativecommons.org/licenses/by/4.0/)</dc:rights></rdf:Description></rdf:RDF></metadata><mask id="viewboxMask"><rect width="762" height="762" rx="0" ry="0" x="0" y="0" fill="#fff" /></mask><g mask="url(#viewboxMask)"><path d="M396 164.8a224.8 224.8 0 0 1 104.8 42.4c6.2 4.9 12.5 9.4 18 15a225.4 225.4 0 0 1 71.8 149 58.5 58.5 0 0 1 50.9 42.2 71 71 0 0 1-27.6 76.5c-11 7.7-24.5 12-38 11.7-5 0-10-1.6-15-1.8-1.9 2.2-3.3 4.9-4.8 7.3A223.3 223.3 0 0 1 389 609.8c-11 .7-21.9 2-33 .7a223.7 223.7 0 0 1-178.8-342.3A223.4 223.4 0 0 1 352 163.5c14.6-1.4 29.4-.3 44 1.3Z" fill="#000"/><path fill-rule="evenodd" clip-rule="evenodd" d="M498.8 213.2A216 216 0 0 0 363 169c-13-.2-26.2 1.6-39 4a218 218 0 0 0-113.6 365.5 218.5 218.5 0 0 0 260.4 40.2c35-18.8 64.2-47.3 84.4-81.5l-3-1.6c-2.8-1.4-5.7-3-8-5-2.2-2-.3-5.8 2.7-4.7 1.5.7 3 1.6 4.4 2.4a55 55 0 0 0 59.6-3.6 64.5 64.5 0 0 0 25-69.8 53.1 53.1 0 0 0-24-31 52.6 52.6 0 0 0-47-2.8c-1.6.8-3.4 1.5-5 1.3-2.5-.2-2.8-4.2-.6-5.2 8-4 16.5-5.6 25.4-6.4a217 217 0 0 0-72-146.4c-4.4-4-8.7-8.1-13.9-11.3Zm107.6 196.2c2-1.2 1.3-5.1-1.4-5-2 0-4.2.8-6.2 1.6l-1.4.4a95.1 95.1 0 0 0-25.5 12.4c-2.2 2-2.2 4.4.1 6.2a92 92 0 0 0 5.2 2.8 36 36 0 0 1 13 9.2c-.2 1.9-2 3.4-3.4 4.5l-.2.2c-3.9 3-8.8 5-13.6 7-2.5 1-4.9 2-7.1 3.1-1.7.8-2.6 2.2-1.6 3.9 1 2 3.2 1.1 5 .5l.6-.2 5.4-2.3c5.4-2.3 11-4.5 15.4-8 2.7-2.1 5.1-5.1 5.4-8.7-.5-3.4-2.7-5.7-5.3-7.8a83 83 0 0 0-11.6-7.2l-1.1-.6c5.4-3 10.8-5.6 16.6-7.7l5-1.7a52 52 0 0 0 6.7-2.6Z" fill="#763900"/><g transform="translate(-161 -83)"><path d="M540.5 447.7a103 103 0 0 1 57 7.8 46 46 0 0 1 21.2 19c3.9 7.3 3.9 16.7-.2 24-4.2 8-12 14-20 18.2a95.3 95.3 0 0 1-44.5 9.6c-12 0-24-1.8-35.2-6a56 56 0 0 1-23.7-16.3 26.6 26.6 0 0 1-6-22 35.2 35.2 0 0 1 14.5-20.4 82 82 0 0 1 36.9-13.9Z" fill="#000"/><path d="M547 452.7c8.4-.3 17.2-.6 25.5 1a74 74 0 0 1 30.3 11.5c5.5 4 10.4 9.1 12.3 15.8 2 6.8-.2 14.1-4.7 19.4a54.2 54.2 0 0 1-24.6 15.5c-9.9 3.2-20.4 5-30.8 4.8a92.9 92.9 0 0 1-30.2-4.5A54 54 0 0 1 500 501c-4.3-5-7-12.4-4.9-19 1.5-6.5 6.7-12 12-16 11.4-8.2 26-12 39.9-13.3Z" fill="#fff"/><path d="M373.5 460.8c16.3-2.3 34.2-1 49 6.6 7.8 4 15.5 10.4 18 19 2.4 7.2-.1 14.8-4.6 20.5a50.5 50.5 0 0 1-24.6 15.4 89.7 89.7 0 0 1-45.3 1.8c-10-2.3-20-6.5-27.2-14-4.7-4.7-8-11.2-7.4-18 .6-7.3 5-13.7 10.5-18.2a65 65 0 0 1 31.6-13.1Z" fill="#000"/><path d="M371.5 467c15.6-3 33-1.9 47.4 5 6.4 3 13.5 8.2 15.8 15.2 2 5.6.3 11.7-3.3 16.2a43.5 43.5 0 0 1-18.6 12.4c-12.4 4.4-26 5.9-39 3.9-9.3-1.3-19-4.3-26.7-9.8-5.2-4-9.6-9-10-15.9-.1-6.8 4.2-12.5 9.4-16.6a60.4 60.4 0 0 1 25-10.5Z" fill="#fff"/><path d="M592.2 469.2c2.1-1.6 4.7-.3 6 1.7 2.4 4 2.4 9.6 2.8 14.1.2 4.4.5 9.6-1.2 13.8-2 4-7.5 1.3-8.8-1.9a50.3 50.3 0 0 1-1.6-20.3c.4-2.4.6-6 2.8-7.4ZM416.9 476c2.1.6 2.8 3.8 3.3 5.7.8 5 1.3 10.2 1 15.3-.3 2.6-.7 5.7-3 7.2-2.2 1.3-4.4 0-5.4-2-2.1-3.8-2.2-9-2.3-13.2 0-4.4-.1-8.7 2.2-12.6 1.4-.3 2.7-1 4.2-.3Z" fill="#000"/></g><g transform="translate(-161 -83)"><path d="M582.3 370.7c14 7 27.8 17.3 36.6 30.5a3 3 0 0 1-4.3 4.2A104.4 104.4 0 0 0 482 425c-1.6 2-4 3.6-6.2 1.2-1.7-2.6-2.3-6-3.3-9-2 4.8-3.9 9.6-6.2 14.1-1.6 3.2-6 1.1-7-1.4-3.1-6.9-6.3-13.8-9-20.8v17c-.2 2 .2 4.3-2.2 5.1-2 .3-4.3-1-5.3-2.9-3.2-5.8-6.2-11.9-9.4-17.8 1 5.5 2.6 11 3 16.6.2 2-2.2 3.4-4 2.3a132.6 132.6 0 0 0-58.3-10 65.3 65.3 0 0 0-36 12.6c-3 2.4-5.2 5.5-8 8.2-1.6.7-3.2-.3-4.9-.7.1-1.9.2-3.7.8-5.6a86.6 86.6 0 0 1 40-50c13.5-7.4 30.1-9 44.6-3.4a57.4 57.4 0 0 1 27.6 24c2.4-2.9 4.3-6 6.8-8.8 1.6-1.5 4.6-1.5 5.6.8 2.6 5.1 4.7 10.5 7 15.7L462 390c.4-1.5.6-3.2 1.6-4.5 1.7-1.2 3-.2 4.7.1l.8 2.6c2-4.8 4.7-9.1 8.4-12.8A62.1 62.1 0 0 1 512 359c23.9-3.6 48.9 1.2 70.4 11.8Z" fill="#000"/></g><g transform="translate(-161 -83)"><path d="M517.9 557.3c2.3.2 3.1 2.7 2.3 4.7-1.4 3.5-3.2 7-4.7 10.5-8.4 19.3-19.5 37-31.8 54.2-1.4 1.8-2.9 4-4.8 5.2-3 .8-6.1.8-8.6-1.1a129.4 129.4 0 0 1-24.4-22.8c-7-7.8-13.4-16-18.8-25.1-1-2.2-2.6-4.5-1.2-6.9 1-1.5 3.2-2 4.9-2.5 11-3.1 22.1-6.5 33.3-9.3a235 235 0 0 1 36-5.7c5.8-.5 11.8-1.4 17.8-1.2Z" fill="#000"/><path d="M513.8 563c-9 21.2-21 40.8-34.3 59.5-1 1.1-2.2 2.8-3.7 3-2.2.6-3.7-.8-5.4-1.9a155 155 0 0 1-22.7-22.3A137.4 137.4 0 0 1 431 579c15-4 29.9-8.6 45.1-11.4 12.5-2.5 25-3.3 37.6-4.6Z" fill="#8F2E45"/></g><g transform="translate(-161 -83)"></g><g transform="translate(-161 -83)"><path d="M569 416.3c10.7-.3 21.4 0 32-.2 14-.7 28-.4 42-.6 3.9.2 9-.1 12.2 2.4 2.4 1.6 2.2 5.5 2.4 8-.1 4.4-.3 9.5-2.4 13.4-5 2-11.4 1.2-16.8 1.9.4 12.3 1.7 24.6 1.3 36.8-.7 14-3.7 28-10.3 40.4-8.1 13-20 24.3-33.6 31.5a77 77 0 0 1-33.3 7.7c-6.3.2-12.1.5-18.3-.8-9.4-2-18.8-4.4-27-10A81.6 81.6 0 0 1 492 516a193.1 193.1 0 0 1-13.3-43.9c-.5-2.3-2.4-3.5-4.3-4.4-6.7-3-15-.6-18.8 5.6-.8 2.4-1 5-1.2 7.6-.6 7.6-2.2 15.3-3.9 22.8-3.1 13.6-9 26.3-16.8 37.8a50.8 50.8 0 0 1-16.2 14.8 75.6 75.6 0 0 1-34.4 10.3c-7.2-.2-14.2-.4-21.1-2.5-5.5-1.3-10.5-4.8-15.2-8a57.7 57.7 0 0 1-15.3-16.7c-5.3-8.3-9.3-17.3-12.2-26.7a97.5 97.5 0 0 1-5.2-28.7c-4.6.7-9.4 2.2-14 2-4.4-.9-5.3-7.6-5.5-11.1.1-2.4-.1-6.8 2.7-7.7 21.6-9.8 44.4-17 67.5-22.4 17-3.7 34.8-8.3 52.3-6.7 11.2 1 22.8 4 31.7 11 3.2 2.5 5.5 7 9.4 7.7 7 1.8 14.5-1.3 20.9-4 3.6-10 10-17.3 19-22.8a89.3 89.3 0 0 1 20.8-8.3c16.7-4 33.1-4.6 50.2-5.5Z" fill="#000"/><path d="M307.1 478.2c1.2-1.2 3.4 0 2.4 1.6-1.2 1.2-3.4 0-2.4-1.6Z" fill="#000"/><ellipse cx="605" cy="457.5" rx="14" ry="10.5" fill="#fff"/><ellipse cx="411" cy="476.1" rx="11" ry="8.1" fill="#fff"/></g><g transform="translate(-161 -83)"><g fill="#000"><path d="M546 236.8a220 220 0 0 1 141.8 52.3 189.7 189.7 0 0 1 60.4 97.9c5.5 21.9 6.6 44.4 4.3 66.8-.4 1.8-.5 5.6-3 5.6-4.2.2-8.5 0-12.7 1.2a64.9 64.9 0 0 0-31.2 17c-1 1-2 2.2-3.6 1.8-1.6 0-2.3-2-2.1-3.4.3-3 1.5-6 2.1-9 1.6-6.7 1.9-13.2 2.5-20 .6-6.8-.3-13.3-.9-20-.4-3.8-1.2-7.3-2-11a54.2 54.2 0 0 1-26.5-7c-15.8-9-27.3-25-35.5-40.8-9.8-19-16-40-20.2-60.8a441.8 441.8 0 0 1-91.2 25.9 561.7 561.7 0 0 1-101.2 9 386 386 0 0 1-71.2-6c-2-.4-3.5-1.1-3.6-3.3 1-3.8 4-7.3 6.5-10.3 9-11 19-21 29.9-30.1A242 242 0 0 1 546 236.8Z"/><path d="M718.6 474.6c0 1 .3 2.7-.5 3.5-2.2 2.4-5.1 4.2-7.6 6.4-2.6 2.2-4.8 4.9-7.5 6.9-2.7.5-4-2-2.7-4.1 2.7-3.8 6.7-6.8 10.2-9.8 2.7-2 4.5-4.7 8-3Z"/></g><path d="M520.2 243.8c41.3-4.2 83.5 2.8 120.8 21.2a194.1 194.1 0 0 1 79.2 70.7 181 181 0 0 1 26.4 118 68 68 0 0 0-38.6 14c2.8-16.5 3.5-33.4 0-49.8-.7-2.4-1.2-5.3-2.8-7.1-1.6-1.2-4.3-.8-6.2-1-8 .2-16-2.8-22.9-7a87.5 87.5 0 0 1-27.6-30.3 211 211 0 0 1-22.2-60.5c-.8-3.3-1.1-6.8-2.3-10-.9-1.4-2.4-1.8-4-1.2-3.6 1.3-7.1 3-10.7 4.3a443.8 443.8 0 0 1-82.3 22.5 588.4 588.4 0 0 1-81 8.7c-14.6.2-29.4.4-44-.4-14.3-1-28.4-2.4-42.5-4.8a232.8 232.8 0 0 1 160.7-87.3Z" fill="#ab2a18"/></g><g transform="translate(-161 -83)"></g></g></svg>