<svg xmlns="http://www.w3.org/2000/svg" viewBox="0 0 762 762" fill="none" shape-rendering="auto" width="512" height="512"><metadata xmlns:rdf="http://www.w3.org/1999/02/22-rdf-syntax-ns#" xmlns:xsi="http://www.w3.org/2001/XMLSchema-instance" xmlns:dc="http://purl.org/dc/elements/1.1/" xmlns:dcterms="http://purl.org/dc/terms/"><rdf:RDF><rdf:Description><dc:title>Adventurer</dc:title><dc:creator>Lisa Wischofsky</dc:creator><dc:source xsi:type="dcterms:URI">https://www.figma.com/community/file/1184595184137881796</dc:source><dcterms:license xsi:type="dcterms:URI">https://creativecommons.org/licenses/by/4.0/</dcterms:license><dc:rights>Remix of „Adventurer” (https://www.figma.com/community/file/1184595184137881796) by „Lisa Wischofsky”, licensed under „CC BY 4.0” (https://creativecommons.org/licenses/by/4.0/)</dc:rights></rdf:Description></rdf:RDF></metadata><mask id="viewboxMask"><rect width="762" height="762" rx="0" ry="0" x="0" y="0" fill="#fff" /></mask><g mask="url(#viewboxMask)"><path d="M396 164.8a224.8 224.8 0 0 1 104.8 42.4c6.2 4.9 12.5 9.4 18 15a225.4 225.4 0 0 1 71.8 149 58.5 58.5 0 0 1 50.9 42.2 71 71 0 0 1-27.6 76.5c-11 7.7-24.5 12-38 11.7-5 0-10-1.6-15-1.8-1.9 2.2-3.3 4.9-4.8 7.3A223.3 223.3 0 0 1 389 609.8c-11 .7-21.9 2-33 .7a223.7 223.7 0 0 1-178.8-342.3A223.4 223.4 0 0 1 352 163.5c14.6-1.4 29.4-.3 44 1.3Z" fill="#000"/><path fill-rule="evenodd" clip-rule="evenodd" d="M498.8 213.2A216 216 0 0 0 363 169c-13-.2-26.2 1.6-39 4a218 218 0 0 0-113.6 365.5 218.5 218.5 0 0 0 260.4 40.2c35-18.8 64.2-47.3 84.4-81.5l-3-1.6c-2.8-1.4-5.7-3-8-5-2.2-2-.3-5.8 2.7-4.7 1.5.7 3 1.6 4.4 2.4a55 55 0 0 0 59.6-3.6 64.5 64.5 0 0 0 25-69.8 53.1 53.1 0 0 0-24-31 52.6 52.6 0 0 0-47-2.8c-1.6.8-3.4 1.5-5 1.3-2.5-.2-2.8-4.2-.6-5.2 8-4 16.5-5.6 25.4-6.4a217 217 0 0 0-72-146.4c-4.4-4-8.7-8.1-13.9-11.3Zm107.6 196.2c2-1.2 1.3-5.1-1.4-5-2 0-4.2.8-6.2 1.6l-1.4.4a95.1 95.1 0 0 0-25.5 12.4c-2.2 2-2.2 4.4.1 6.2a92 92 0 0 0 5.2 2.8 36 36 0 0 1 13 9.2c-.2 1.9-2 3.4-3.4 4.5l-.2.2c-3.9 3-8.8 5-13.6 7-2.5 1-4.9 2-7.1 3.1-1.7.8-2.6 2.2-1.6 3.9 1 2 3.2 1.1 5 .5l.6-.2 5.4-2.3c5.4-2.3 11-4.5 15.4-8 2.7-2.1 5.1-5.1 5.4-8.7-.5-3.4-2.7-5.7-5.3-7.8a83 83 0 0 0-11.6-7.2l-1.1-.6c5.4-3 10.8-5.6 16.6-7.7l5-1.7a52 52 0 0 0 6.7-2.6Z" fill="#ecad80"/><g transform="translate(-161 -83)"><path d="M506 461.1c5.5-1.1 11.7 2.5 17 4 22.1 7 45.9 9.5 69 7.7 6.2-.6 12.8-2.4 19-2 6.2.7 10.4 6.1 11 12a65.6 65.6 0 0 1-35.5 64.6 65.4 65.4 0 0 1-92.4-76.2c1.4-5.3 6.8-9 12-10ZM428.2 466.8c3.7 2.2 5.9 6.6 7.8 10.2a55.3 55.3 0 0 1-40.8 79.1 55 55 0 0 1-62.5-45c-.5-3.8-1.5-7.7.2-11.2 1.6-4.2 5.7-7.1 10.1-7.6a123.8 123.8 0 0 0 65.1-24.1 16.5 16.5 0 0 1 20.1-1.4Z" fill="#000"/><path d="M513.4 467.6c12.2 5 25.5 8 38.6 9.8 15.6 2 31.4 2.6 47 .3 3.9-.6 8.1-1.8 12-1.6 2.4.1 4.4 2.7 4.8 5a59.2 59.2 0 0 1-37 63.5 59.6 59.6 0 0 1-79.4-70.2c1.6-6.2 8-10 14-6.8ZM427.8 474.2c4.8 7 7.5 15.3 8.4 23.8a49.8 49.8 0 0 1-50.2 53.2 49.2 49.2 0 0 1-48.2-46.2c-.5-3.2 2.1-6.5 5.2-7 3.3-.6 6.7-.8 10-1.2 18.4-2.2 36.5-9.6 52.1-19.7 3.1-1.9 5.9-4.3 9-6.1 4.4-2.3 11-1.2 13.7 3.2Z" fill="#fff"/><path d="M533.5 497a22.1 22.1 0 0 1 24.1 21c.9 11-7.5 21.2-18.4 22.8-12 2.2-24-6.8-25.4-18.8-2-12.3 7.5-24 19.7-25ZM400.5 505.5c6-1.3 12.6.9 17 5a19.5 19.5 0 1 1-17-5Z" fill="#000"/></g><g transform="translate(-161 -83)"><path d="M607 397.6c1.5-.4 3.2.6 4.7 1 0 1.2-.1 2.4-.4 3.6-1.6 1.5-3.6 2.6-5.4 3.8a803.6 803.6 0 0 1-70.4 40.6A289.9 289.9 0 0 1 500 462a50 50 0 0 1-21 3.5c-3.3-.4-6.2-3-6.2-6.5 0-4.2 3-8.6 5-12.1 1.3-2.7 4.5-3 7-4.1l111.7-41.5c3.5-1.2 7-2.8 10.5-3.7ZM339 432.6l90 18c2.3.4 4.6.1 6.9.5 2.4 2.3 3.6 6.2 4.5 9.4 1.2 4-.1 8.8-4 11-4 2.6-9.8 2.1-14.4 1.9-8.8-1-17.4-3.8-25.7-6.8a418 418 0 0 1-57-27c-1.6-.9-3.6-1.9-4.8-3.5-.3-2.9 1.9-4.1 4.5-3.5Z" fill="#000"/></g><g transform="translate(-161 -83)"><path d="M462.2 552.8c6 1.3 12 4.5 15.7 9.3 1.3 2.3 0 5-2.8 4.7-2.2-1.3-4-3.4-6-4.8a21.9 21.9 0 0 0-15.1-3.7c-2.6.5-5.4 1.6-6.8 3.9-1.6 2-1.3 4.7-.4 7 1.7 4.4 6 7.9 10.2 9.7 2.3 1.1 5.3 1.3 7.3 2.8 1.7 1.8.6 4.3-1.7 4.8-4.6 1-8.7 2.6-11.7 6.5a17 17 0 0 0 1.4 22.7 18.3 18.3 0 0 0 24.3 1.9c2.4-1.9 3.5-4.4 5.5-6.6 3-1.5 5 1 4 3.9a23.2 23.2 0 0 1-27.2 11.4 24 24 0 0 1-17.2-19.3 23.2 23.2 0 0 1 11.3-23.5 23 23 0 0 1-12.4-14.2c-1.5-5.3.8-11.3 5.5-14.2 4.7-3.3 10.7-3.2 16.1-2.3Z" fill="#000"/></g><g transform="translate(-161 -83)"></g><g transform="translate(-161 -83)"></g><g transform="translate(-161 -83)"><path d="M578 188.8c20.1 2.9 40 10.7 56 23.3 2 2 4.4 1.8 7 2.2a108.2 108.2 0 0 1 53.5 23.1c2 1.6 4 3.7 6.3 4.8a144 144 0 0 1 68.4 62.6 187.8 187.8 0 0 1 22 80.2c.4 10 .4 20 0 30a318.5 318.5 0 0 1-7.7 51.2c-.5 1.8-1.4 3.3-2.3 5-2-.8-4-1.4-5.6-2.8-5-4.3-11.8-6.2-18.1-7.5-5.7-1-12-1.3-17.6.2-2.1 1.7-3.7 4.2-5.5 6.3a170.5 170.5 0 0 1-38 31c-3.2 1.9-6.6 4-10.3 4.5-2.6-.4-3.3-2.3-2.7-4.7 2.4-10.3 4.5-20.5 4.5-31.2 0-25.8-4.6-51-10.8-76-3.1-11.1-6.2-22.5-10.8-33a123.6 123.6 0 0 1-36.5 49.9c-2.2 1.2-4.8.4-5-2.3a227.9 227.9 0 0 0-19-57.8c-1.6 8.4-2.8 16.9-5 25.2-2.1 8.5-5.4 16.5-8 24.8-.7 1.8-1 3.6-2.7 4.8-2.5.5-5.1-1.2-7-2.7-8.5-6.9-17-13.8-25-21-5.3-5-10.2-10.5-15.1-15.9a392.2 392.2 0 0 1-27.4-33.3 347 347 0 0 1-18.8 63c-.8 1.7-1.6 4.5-3.8 4.5-2 .4-3.6-1.2-3.7-3.2-.6-5.6-.4-11.4-1-17-1.4-13.6-1-27.2-1-40.9a263.1 263.1 0 0 0-15 26.1c-5.6 11-9.6 22.7-11.7 34.8-.5 2.6-.6 5.5-1.6 8-1.2 2.1-3.4 1-5 .1a97 97 0 0 1-45.4-57.8 251 251 0 0 0-25.3 33.9c-7.5 11.9-13.7 24-16.7 37.8-.8 3.4-.2 6.6-.3 10a3.2 3.2 0 0 1-3.3 3c-2.6 0-5.4-1.2-7.8-2.2a149.8 149.8 0 0 1-36.7-21.7c-4 12.3-6.1 25-7.5 37.7a185 185 0 0 0 .8 52.7c.2 1.8.7 3.3-.5 4.9a5 5 0 0 1-5.6-1c-3-2.8-5.3-6.2-7.6-9.4a108.1 108.1 0 0 1-19.4-63c0-18 5.1-34.6 12.6-50.7a78 78 0 0 1 7.2-12c-1.4-13.3-.5-26.7 3.3-39.5a83.8 83.8 0 0 1 21.7-36c-4.4-19.1-4.1-39.2 5.6-56.7 8.6-15.2 23-24.6 38.8-31.2 16.5-6.7 34.1-11 51.9-6.6a53.5 53.5 0 0 1 26.7 15.1 91.1 91.1 0 0 1 59.5-22.7c2.7.1 6-.3 8.6.8 2 2 2.9 5.2 4.2 7.7 18-10.1 39-12 59.2-9.4ZM786 557.4c2 1 3.2 3.5 3.3 5.5.5 5.7-.4 11.5-3 16.6-.8 2.2-2.3 4-1.8 6.5 2 12.5 5 23.8 5.3 36a65.4 65.4 0 0 1-10.6 44.1c-1.7 2.5-4.2 4.4-5.8 7a113.8 113.8 0 0 1-14.6 45.6 92.8 92.8 0 0 1-39.1 35c-1.8 1-5.8 1.3-6 3.7-2 6.9-5 13.5-8.7 19.6a101.5 101.5 0 0 1-24.4 26.5c-6.8 5.2-13.5 10.1-21.2 13.8-11.2 6-23.6 9.9-35.4 14.5 2.9 3.2 7 4.8 9.5 8.7 1.3 2.2.7 5.1-1.6 6.4-4.5 2.8-11 2.4-16 2.5-.7 9.6 3 17.5 6.8 26 4.8 10.3 8.8 20.9 12.3 31.7a68 68 0 0 1 2.4 36 72 72 0 0 1-29.7 43.5c-2.9 1.2-3.6-1.8-4.6-3.7a47.2 47.2 0 0 0-22-22c-12.5-6.8-25-12.4-34.2-23.5 0 5.4.3 10.8 2.4 15.9-.7 1-1.4 2.2-2.3 2.8-2.1.5-3.5-1-5-2a72.3 72.3 0 0 1-19-23.2 58.3 58.3 0 0 1-6.4-38.7c2.6-14.7 11.1-27 20.1-38.5 7-8.8 16-14.7 25.5-20.5-.5-2-1.8-4-1-6 1.3-4.4 4.7-6.2 8.5-8.2-.6-2.6-1-5.3-.7-8 1-10.4 4.9-20.5 11.5-28.5 1.8-2.5 4.1-4 4.2-7.5.7-7 2.3-13.7 5.2-20 6.4-13.6 14-26 27.6-33.2 2.6-11.5 6.4-22.6 12.7-32.7 5.3-8.3 11.3-16 19.5-21.7.4-6 1.5-12.3 3.6-18 2-2 4.8-3.4 7-5.1 11.1-8.3 21-18.5 30.3-28.7a187.1 187.1 0 0 0 24.5-32.5c1.3-2.3 2-6.5 4.9-7.3 3.8.4 7.2 2.4 11 2.8 6.8.8 13.8.4 20.5-1.2 11.2-2.8 23-8.5 30.2-17.7 1.4-1.4 2-2.7 4.4-2.3Z" fill="#000"/><g fill="#cb6820"><path d="M556 193.6c31-1.7 63.3 10 84.8 32.6 2 1.8 3.5 1.7 5.3-.2.5-2.5-1.4-3.8-2.7-5.7a105.8 105.8 0 0 1 48.1 22.1c17.7 14.4 30 34.2 37.7 55.4 6.6 18 9.8 37.2 10.8 56.2.3 3.5 0 7 .5 10.5 1.1 2.8 4.7 2.5 5.4-.5.7-5.2-.5-10.8-.6-16-2.3-34-12.4-67.4-34-94.2 19.4 11.1 36 26.9 48 45.8a174.7 174.7 0 0 1 25.9 82.4c1 8.2.5 16.6.6 25-.8 18.8-3.2 37.4-7.5 55.8-10.1-6.5-22-9-34-8.5 7.6-11.3 14.8-24 18-37.3.8-2.4-.8-3.2-2.2-4.8-2 1.2-3 2-3.5 4.2a113.6 113.6 0 0 1-15.3 32 152 152 0 0 1-51.5 47.6c3-13 4.8-26.7 3.6-40-1-22.1-5-43.6-10.4-65a238 238 0 0 0-13.9-39.6c5.3-13.3 8.5-27.1 8.8-41.4-.3-19.8-7.2-39.6-15.2-57.6-1-2-1.8-4.2-4.6-3.6-2.5 1-2 3.2-1 5.2 6.3 14 11.8 29.2 14.2 44.5.9 7 .9 14.4.2 21.5a128.9 128.9 0 0 1-10 34.6c-4.8 11-10.3 21.6-17.9 31.1-4 5.4-8.8 10-13.8 14.6a203.6 203.6 0 0 0-12.1-39.1 508.7 508.7 0 0 0-36.5-71.4c-2-3.2-3.8-6.9-6.4-9.7-1.7-1.5-4.2-.3-4.5 1.8.1 3.7 1.3 7.4 1.8 11 .7 3.9.5 7.8 1.3 11.6 1.7 1 2.4.8 4-.2 1.5-2.8.7-6.7.4-9.8a944.4 944.4 0 0 1 22.6 42c.5 1.3 1.6 2.9 1.1 4.2-1.3 5.4-2.5 10.8-3.2 16.3-2 13.5-6.1 26.2-10.7 39-12.3-9.9-25.2-20.1-35.7-31.9A415 415 0 0 1 528 337c-3.9-4.9-7.8-9.6-10.9-15.1l3.4-18.9c2.5-14.5 3.6-29.3 5-44 .6-17.9 1-36.8-4.3-54.1-.7-1.6 1-1.8 2-2.5a84 84 0 0 1 32.8-8.8Z"/><path d="M511.6 195.4c6.5 12.8 8 26.4 8.4 40.6.5 7.7 0 15.3-.3 23a467 467 0 0 1-6.5 52.2c-4.2 24.8-10 49.2-19.2 72.6-1-15.3-1-30.5-.8-45.8 0-3.6.9-7.6.1-11.1-1.2-2.6-5-2.2-6.4 0a180.1 180.1 0 0 0-15.1 23.9c-4.6 8.5-9 16.8-12 26a154 154 0 0 0-5.5 22A85.5 85.5 0 0 1 430 377c-15-19.8-22-45.3-21-70 .2-20.9 6.1-41.7 16.4-59.8 10.1-18 25.3-33.7 43.8-43a83 83 0 0 1 42.4-8.8Z"/><path d="M426.5 205.4a53.3 53.3 0 0 1 15.7 10.9 131.7 131.7 0 0 0-35.5 124.6c-15.4 17-29.3 36-39 56.9a77 77 0 0 0-7.6 27.8c-12-4.9-23.5-11-34-18.8-5.8-4.4-10.9-9.9-14.3-16.4A77.7 77.7 0 0 1 304 346c1.6-17.9 8.6-34.9 20.9-48.1 3 9.2 5.8 18.3 12.2 25.9 1.5 1.7 4.6 1.3 5.4-1 1.3-4 2-8 3.5-12a98.3 98.3 0 0 1 22-33.8c9.1-9 20.2-16.3 31.1-23 1.4-4.5-3.2-4.4-5.8-2.7-10.8 6.8-22 14.1-30.9 23.2a98.7 98.7 0 0 0-24 41.4 107.4 107.4 0 0 1-11-33.1c-1.1-6.5-1-13.3-.7-19.8a57 57 0 0 1 19.5-39.7c12.5-10.4 28.5-17 44.2-20.5a60 60 0 0 1 36 2.6ZM299.8 375c1.7 5.2 3.1 10.6 5.6 15.6 2.2 4.8 5.3 9 8.6 13.1-5.2 14-7.4 29.4-9 44.3a226 226 0 0 0-.1 44.7c-11-15.3-18.4-33-20-51.9-1-6.6-.8-13.2 0-19.8a124 124 0 0 1 14.9-46ZM784.3 565.8c-.4 4-1 8-3 11.7a69 69 0 0 1-15.8 19c-8.1 7-17 13.3-26.2 18.8-8.2 5-16.2 10.7-23.8 16.7-1-8.4-1.6-16.5-1.4-25 .2-4.4-.8-10.3 1.9-14 2.2-3.5 4.2-7 6-10.6a55 55 0 0 0 25 1.7 66 66 0 0 0 37.3-18.3ZM779.7 590c2 10.7 4.1 21.2 4.6 32 .7 13.5-.9 26.5-8.1 38.2a42.4 42.4 0 0 1-21 17 210 210 0 0 1-47.7 12.6 137 137 0 0 0-18.5 5.7c-.8-5-.6-9.5.4-14.5 2.5-11.7 8-22.7 16-31.5A178.5 178.5 0 0 1 746 618c12.5-8 24.1-16.6 33.7-28ZM708.3 603.5c-.1 10.7.8 21.4 2.6 32-4.4 4.3-8.6 8.8-12.6 13.4 0-9.5-2-18.6-3-28-.4-2 1.1-3 2.2-4.4 3.8-4.2 7.3-8.5 10.8-13ZM690.1 624.8c1.8 10.4 3.4 20.6 2.7 31.2-.4 1.9-1.6 3.5-2.4 5.2a60 60 0 0 0-7 36.8c-6.1 3.1-12 6.4-17.5 10.5a57.8 57.8 0 0 1-8.7-20.5 68.8 68.8 0 0 1 .3-34.7c12.5-8 22.1-18.2 32.6-28.5ZM649.7 674c.4 5.5 1.2 11 2.2 16.4 1.6 8 5.1 15.2 9.6 22a84.1 84.1 0 0 0-24.8 47c-5 2.2-9.6 4.9-14.1 7.9-2.4-6.6-1.8-14.3-1.9-21.3 0-10.5 1.7-20.7 4.4-30.8a85.8 85.8 0 0 1 24.6-41.3ZM767.5 677.3c-2.5 14.6-7.3 30-16.1 42.1A96.8 96.8 0 0 1 733 739a56.7 56.7 0 0 1-25 12.2c-10.4 1-20.8-.3-31-.2-11.4.5-23.2 1.9-34 5.9a80 80 0 0 1 19-36.8 81.2 81.2 0 0 1 27.6-18.4c8.8-3.7 18-6.2 27.4-7.6a164 164 0 0 0 50.5-16.7ZM616.2 728.8c-.4 5.5-1.4 10.7-1.3 16.2 0 9-.5 17.4 3 26a111.6 111.6 0 0 0-23.9 27.4 30 30 0 0 1-3.5-11.4 61.2 61.2 0 0 1 8.3-37.2 60.5 60.5 0 0 1 17.4-21ZM708.4 756.8c-1.8 5-3.8 9.7-6.3 14.3a104 104 0 0 1-32 33c-10.4 7.5-22.9 13-34.9 17.2-6.2 2.8-12 3.8-17.4 7.7-9-4-18.3-5.7-28-7.9a70 70 0 0 1 8.7-18.6 100.3 100.3 0 0 1 28.7-31.3 92.2 92.2 0 0 1 25.3-11.4 120 120 0 0 1 32.5-3.1c7.8.6 15.6.8 23.4.1ZM584.5 785.7c.6 6.6 2.4 12.8 6.3 18.2-3 5.1-5 10.5-6.8 16.1-2.8-.5-6-.9-8.7-2.2-2.5-10.8 2.8-23.4 9.2-32.1ZM571.5 824.7c4.9-1.8 10.5.6 15.5 1.4 15 3.4 29.1 5.7 40.8 16.5-11.5 3-25.4-.9-36.8-3.8-8.1-2.4-17.9-4.6-24.7-9.9 1.5-1.8 2.9-3.4 5.2-4.2ZM567 836.6c7.2 3.2 14.4 5.7 22 7.5a62.8 62.8 0 0 0-5.5 38c1 8.6 4 16.9 7.6 24.8.7 1.7 3.5 2.3 4.5.7 1.7-2-.3-5-1-7.2a77.2 77.2 0 0 1-6.4-31.4c.5-8.3 1.6-16.2 6.1-23.4 5.4 1.4 10.8 2.6 16.3 3.3-1.3 14.3 6.2 25.6 11.1 38.4 4.8 12.8 10.6 26.5 11.4 40.2.6 12.1-3.6 24.4-10.1 34.5a51 51 0 0 1-15.3 17c-2.7-5-6-9.6-10.2-13.5-7.9-7.7-17-11-26.4-16.6a55.6 55.6 0 0 1-20.9-17.2c-8.1-11.6-8.1-27.1-7-40.7a76 76 0 0 1 15-38.9 4 4 0 0 0 1-3c-.7-1.8-2.6-2.3-4-1.1a36 36 0 0 0-7.8 10.5c-6 10.9-9 23.2-10.3 35.5-.9 12.3 0 24.6 5.2 36a57.8 57.8 0 0 0-1 16 65.1 65.1 0 0 1-20-42c0-11.7 3.6-23 10-32.7 5-7.8 10.6-16.2 17.7-22.3a116 116 0 0 1 18-12.4Z"/></g></g><g transform="translate(-161 -83)"></g></g></svg>