<svg xmlns="http://www.w3.org/2000/svg" viewBox="0 0 762 762" fill="none" shape-rendering="auto" width="512" height="512"><metadata xmlns:rdf="http://www.w3.org/1999/02/22-rdf-syntax-ns#" xmlns:xsi="http://www.w3.org/2001/XMLSchema-instance" xmlns:dc="http://purl.org/dc/elements/1.1/" xmlns:dcterms="http://purl.org/dc/terms/"><rdf:RDF><rdf:Description><dc:title>Adventurer</dc:title><dc:creator>Lisa Wischofsky</dc:creator><dc:source xsi:type="dcterms:URI">https://www.figma.com/community/file/1184595184137881796</dc:source><dcterms:license xsi:type="dcterms:URI">https://creativecommons.org/licenses/by/4.0/</dcterms:license><dc:rights>Remix of „Adventurer” (https://www.figma.com/community/file/1184595184137881796) by „Lisa Wischofsky”, licensed under „CC BY 4.0” (https://creativecommons.org/licenses/by/4.0/)</dc:rights></rdf:Description></rdf:RDF></metadata><mask id="viewboxMask"><rect width="762" height="762" rx="0" ry="0" x="0" y="0" fill="#fff" /></mask><g mask="url(#viewboxMask)"><path d="M396 164.8a224.8 224.8 0 0 1 104.8 42.4c6.2 4.9 12.5 9.4 18 15a225.4 225.4 0 0 1 71.8 149 58.5 58.5 0 0 1 50.9 42.2 71 71 0 0 1-27.6 76.5c-11 7.7-24.5 12-38 11.7-5 0-10-1.6-15-1.8-1.9 2.2-3.3 4.9-4.8 7.3A223.3 223.3 0 0 1 389 609.8c-11 .7-21.9 2-33 .7a223.7 223.7 0 0 1-178.8-342.3A223.4 223.4 0 0 1 352 163.5c14.6-1.4 29.4-.3 44 1.3Z" fill="#000"/><path fill-rule="evenodd" clip-rule="evenodd" d="M498.8 213.2A216 216 0 0 0 363 169c-13-.2-26.2 1.6-39 4a218 218 0 0 0-113.6 365.5 218.5 218.5 0 0 0 260.4 40.2c35-18.8 64.2-47.3 84.4-81.5l-3-1.6c-2.8-1.4-5.7-3-8-5-2.2-2-.3-5.8 2.7-4.7 1.5.7 3 1.6 4.4 2.4a55 55 0 0 0 59.6-3.6 64.5 64.5 0 0 0 25-69.8 53.1 53.1 0 0 0-24-31 52.6 52.6 0 0 0-47-2.8c-1.6.8-3.4 1.5-5 1.3-2.5-.2-2.8-4.2-.6-5.2 8-4 16.5-5.6 25.4-6.4a217 217 0 0 0-72-146.4c-4.4-4-8.7-8.1-13.9-11.3Zm107.6 196.2c2-1.2 1.3-5.1-1.4-5-2 0-4.2.8-6.2 1.6l-1.4.4a95.1 95.1 0 0 0-25.5 12.4c-2.2 2-2.2 4.4.1 6.2a92 92 0 0 0 5.2 2.8 36 36 0 0 1 13 9.2c-.2 1.9-2 3.4-3.4 4.5l-.2.2c-3.9 3-8.8 5-13.6 7-2.5 1-4.9 2-7.1 3.1-1.7.8-2.6 2.2-1.6 3.9 1 2 3.2 1.1 5 .5l.6-.2 5.4-2.3c5.4-2.3 11-4.5 15.4-8 2.7-2.1 5.1-5.1 5.4-8.7-.5-3.4-2.7-5.7-5.3-7.8a83 83 0 0 0-11.6-7.2l-1.1-.6c5.4-3 10.8-5.6 16.6-7.7l5-1.7a52 52 0 0 0 6.7-2.6Z" fill="#763900"/><g transform="translate(-161 -83)"><path d="M561.9 423.3c1.8.4 1.9 1.9 2 3.5 0 6.7-1 13.4-.8 20.1 8.3.6 16 2 24 4.5 3.2-7.1 6-14.4 8.8-21.6 1-1.8 1.5-4.1 4-3.8 2.4.3 2.6 3 1.8 4.8l-9 22.6a69.9 69.9 0 0 1 18.1 10.8c5-4.6 9.7-9.4 14.7-13.8 1.6-1.6 3.3-1 5.3-1.1-.2 2 .3 3.6-1.4 5.1-4.7 4.8-9.7 9.3-14.6 13.9a30 30 0 0 1 6.7 16.7c.7 9.9-4.8 18.2-12 24.4a78.6 78.6 0 0 1-40.5 16.1c-16.6 1.9-33.8.9-49.5-5A56.4 56.4 0 0 1 495 504c-5-6.4-7.8-14.7-5.7-22.8 2.4-9.9 9.9-17.3 18.3-22.4 14.8-9 32.4-12.1 49.5-12.1.2-6.6.5-13.2 1.1-19.7 0-2 1.2-4.3 3.6-3.7ZM372 441.4c2-.2 2.6 2.2 3.1 3.6 1.2 5 1.3 10.2 2.2 15.3a99 99 0 0 1 25.7.7c10.9 2 22 6 30.1 13.9 5 4.6 8.5 11.2 8.3 18.1a27 27 0 0 1-10 18.5 65 65 0 0 1-33 13.7 84 84 0 0 1-47.3-6.3c-8.5-4.1-17-11.2-19.2-20.8-1.3-5.2 0-10 2-14.8-3.9-3.5-7.7-7-11.5-10.7-.8-1-2.4-2.2-2-3.6 0-2.6 3.5-3 5-1.4 4 3.5 7.7 7.4 11.7 10.9 3.4-3.6 7-6.6 11.1-9.2l-8.2-18.4c-1.1-2.2-.9-4.4-.7-6.8 1.2.2 2.6.3 3.8.8 1.2 1.2 1.8 3 2.6 4.5 2.5 5.7 5.1 11.4 7.5 17.2 6-2.6 12-4.3 18.3-5.6-.4-5.4-1.7-10.6-2-16 0-1.6.4-4.1 2.5-3.6Z" fill="#000"/><path d="M539.5 453.7a103 103 0 0 1 44.2 2.6c9.5 3 19.2 7.5 26 15 4.3 5 7 11.1 6 17.7-1.1 7.2-5.8 13-11.4 17.3a73.5 73.5 0 0 1-31.1 12.8 101.6 101.6 0 0 1-47.7-2.6c-9.4-3-19-7.8-25.5-15.5-4.3-5-6.9-12.4-4.9-19 1.6-6.6 6.7-12 12-16a76 76 0 0 1 32.4-12.3ZM371.5 467c15.6-3 33-1.8 47.4 5 6.4 3 13.4 8.2 15.8 15.1 2 5.7.3 11.8-3.3 16.3a43.5 43.5 0 0 1-18.6 12.3 80.5 80.5 0 0 1-39.8 3.8c-9-1.3-18.4-4.3-26-9.6-5.1-4-9.5-9-9.8-15.9-.2-6.6 3.9-12 8.7-16.1a59.4 59.4 0 0 1 25.6-11Z" fill="#fff"/><path d="M592.2 469.2c2.2-1.6 4.7-.3 6 1.7 1.8 3 2.1 6.6 2.5 10.1.4 5.2.8 10.7-.3 15.9-.3 1.3-1 2.6-2 3.5-3 1.4-6.9-1.3-7.6-4.2-2-6.2-2-13.2-1.4-19.7.4-2.3.6-5.9 2.8-7.3ZM413.3 476.3a4 4 0 0 1 6 2.4c1.8 5.1 1.9 11 2 16.3-.1 3.1-.4 8-3.8 9.5-2.6 1-4.6-1.4-5.4-3.6a45.1 45.1 0 0 1-1.5-17c.2-2.3.4-6.2 2.7-7.6Z" fill="#000"/></g><g transform="translate(-161 -83)"><path d="M531 352.3a85.8 85.8 0 0 1 60.6 15.1 82.9 82.9 0 0 1 29 33c1 3-.4 3.8-2.6 5.3-4-2.2-6.9-5.6-10.5-8.3-13-9.7-28-16.3-43.7-20.2-15-3.5-30.6-5-45.8-2.8-4.8.4-9.3 2-14 2.7-2.4.2-5.1-1.2-4.2-4 1.9-4.2 4.2-8.6 7.6-11.7a45 45 0 0 1 23.6-9ZM383 428.8c13.4-.8 26.3-.6 39 4.3 5.9 2.3 11.6 5.9 14 12a14 14 0 0 1-1.8 12.6c-4.9-.7-9.4-2.6-14.1-3.8a203 203 0 0 0-71-6c-5 .4-10 2-14.8 1.8-1.8-.5-1.2-2.2-1-3.5.9-2.5 3.6-3.9 5.8-5.1a119.2 119.2 0 0 1 43.9-12.3Z" fill="#000"/></g><g transform="translate(-161 -83)"><path d="M504 568.7c3.7-1.3 5.6 4 2.2 5.5-5.7 2.8-10.8 6.6-13 12.8-2.2 6.4.5 13.1 4.8 18 3 3.4 6.6 5.4 10.4 7.7 2 1 1.3 2.8 1.1 4.6l-2.5 1A37 37 0 0 1 491 606c-2.3-3.2-3.3-6.7-4.6-10.3-25.1 2-50.4 2.8-75.5 4.7-1.8-.3-2.4-2-3.5-3.3 1.1-1.2 1.7-2.7 3.5-2.8 17.4-.9 34.6-2 52-3 7.8-.7 15.7-.5 23.5-1.5a27.9 27.9 0 0 1 17.5-21Z" fill="#000"/></g><g transform="translate(-161 -83)"></g><g transform="translate(-161 -83)"></g><g transform="translate(-161 -83)"><g fill-rule="evenodd" clip-rule="evenodd"><path d="M565 187.8c14.4 3.8 29.8 8.3 42.4 16.1 11-5.8 23.2-8.4 35.6-8.8a98.4 98.4 0 0 1 78.4 40.5 84 84 0 0 1 16.8 50.3c23.3-1.6 44.4 7.4 62.8 21a171.7 171.7 0 0 1 59.1 86c4.5 14.3 6.4 29.2 7 44.1l-.6 7.5-.3 4.3a88 88 0 0 1-13.6 40.2 170.2 170.2 0 0 1 26 52.5c7 23.2 9.8 49.3 4 73 8 .4 15.8.9 23.6 2.2 11.8 2.3 23.1 8.3 32.9 15.2a68.2 68.2 0 0 1 26.4 33.6c4.1 12 4 23.8 3.6 36.3v5.8c-.1 6.6-.2 13.3 1.5 19.4 2 8 6.8 15.3 13.3 20.1 5.7 3.9 12 6.7 19 5.8h1.8c2.4-.2 5-.4 5.1 3a40 40 0 0 1-14 14.9c-8.4 5.5-18 9.8-28.1 10.1v.5c.1 5.8.3 11.3-.5 17.1-1.6 10.7-5.1 21-10.2 30.5a130.1 130.1 0 0 1-43 46.5l-1.1-.6c-1.3-.7-2.8-1.6-2.8-3 0-1.5.2-3 .4-4.6.2-1.8.4-3.5.4-5.3a37 37 0 0 0-12.5-26.4c-9.8-9-23-13.9-36.3-14.6a70.6 70.6 0 0 1 9 56c-4.2 18.1-14 34.9-27.6 47.5a79.7 79.7 0 0 1-44.1 21.7c-.5 3.5-1.2 7-3 10.1a46.2 46.2 0 0 1-20.8 18.3A57.1 57.1 0 0 1 743 980c-2.4-.3-4.3-2.6-3.3-5l2.4-2.3c1.7-1.5 3.3-3 4.4-5.2 4.8-8.6 6-19.3 2.7-28.7a28 28 0 0 0-18.7-18.3A42.7 42.7 0 0 0 713 919c-11.5 1.4-22.5 5.4-33.3 9.4l-9.1 3.2c-15.7 5.2-31 9.8-47.6 10.5-14-.1-27.7-3.6-38.9-12.3a56 56 0 0 1-20.7-34.8c-2.6-12.8-2-25.7.4-38.4a79.4 79.4 0 0 0-26.6 46.4c-.9 5.5-.5 10.8.6 16.2.6 2-.4 2.7-1.7 3.6l-1 .8c-5.4-3.4-7.8-8.5-10.5-14l-.4-.8c-4-8.9-7-18-8.4-27.8-.8-9.1-.3-18.3 2-27.2 2.5-9.6 7-19.8 14.3-26.7 6.4-5.7 14.9-9.4 23.1-13a211.2 211.2 0 0 0 10.7-4.9c6.4-3 12.6-6 15.6-12.7 4.6-10.8 2.6-23.8-.2-34.8A60.2 60.2 0 0 1 546 786a78.9 78.9 0 0 1-51-3.2 65 65 0 0 1-1 24 65.9 65.9 0 0 1-29 38.2 111 111 0 0 1-56.7 16.5c-.9 13.4-8 24.3-17.3 33.5a117.6 117.6 0 0 1-53.5 28.7 104.1 104.1 0 0 1-43.7 2l-1-.3c-1.6-.4-3.1-.7-4-2.3-.2-2 0-4.3 2.4-4.8l3-.6c4.8-1 9.3-1.8 13.4-5 4.8-3.8 6.7-9.8 7.2-15.7.1-8-4-14.9-9.7-20a68.8 68.8 0 0 0-27.3-13.6c-7.8-2-15.8-3.9-23.8-4.4-5.2-.6-10.7-.2-16.1.2-6 .4-11.8.9-17.4 0a39.4 39.4 0 0 1-23.2-12.6c-4.6-5-7.2-11.2-8.8-17.8-5 7.4-7.8 16.4-5.6 25.2a14 14 0 0 0 3.1 5.6c.7.8 1.3 1.6 1.8 2.5.3 2.7-3.5 4.7-5.8 3.7-10.3-2.6-20-6-26.8-14.6a38.8 38.8 0 0 1-37.8-10.6A74.8 74.8 0 0 1 98 803c-3.7-17.5-3.4-36 .5-53.5 3.9-17.4 11.8-35.3 24.5-48.2a31.3 31.3 0 0 1-14.2-18.3 66.7 66.7 0 0 1-1.6-34 53 53 0 0 1 16-30.4 28.6 28.6 0 0 1-13-15 48.4 48.4 0 0 1 5.6-43.8c3-4.4 7.1-8.6 12-11 2-1.3 5.1-.3 5.4 2.2-.1 1.6-.5 3.3-.9 4.9-.4 1.7-.8 3.3-1 5-1 8.9 2.2 18 8.5 24.2a38 38 0 0 0 25.2 10.4c13 .4 26-4.3 36-12.6a47 47 0 0 0 16.3-26.8c-8.8-17.9-9.6-37.6-8-57.1a119.5 119.5 0 0 1 19.3-52.7c1-1.5 2-3 .8-4.7a93.3 93.3 0 0 1-10.2-51.8 141.5 141.5 0 0 1 85.5-115c15.9-6.5 33-9.3 50-7.4 2-8.3 5-16.3 8.9-23.8a93.5 93.5 0 0 1 25-29c21.2-17 48-25.8 74.4-30.4 34-5.7 68.7-5 102 3.7Zm-147.4 115a48 48 0 0 0-7 15.1c-.9 4.7-1.8 9.4-1.7 14.1 0 2.4 2.4 5.6 5 4a157.6 157.6 0 0 1 33-15.2c19.9-6.3 40.3-8.5 61-9.3 17.6 0 35 2 52 6.8 1.2.3 1.6 1.2 2.1 2.2l.5 1c3.4 7 6.5 14.3 9.6 21.5 3 7 6 13.9 9.2 20.7a220.8 220.8 0 0 0 30.5 48.4c8.4 10 18 18.9 28.8 26.3a73 73 0 0 0 35.3 13.6c2.8.2 5.6.2 8.4.2h5c1.6 9.9.5 19.7-1 29.6-2.4 16.5-7 32.7-13.3 48.2a129.2 129.2 0 0 1-19.6 32.5 153.4 153.4 0 0 1-34.9 30c-8 5.3-15.6 11-22.6 17.4A110.3 110.3 0 0 0 574 641a105.8 105.8 0 0 0-12.2 44.5l-2 .2c-9.6 1.1-19.2 2.3-29 2.1a216 216 0 0 1-85.6-16.2c-27-11-51.5-27.7-72.2-48.2V621.4c0-5.3 0-10.4-1-15.6-3.3-20-12.7-37.8-25.4-53.5a202.2 202.2 0 0 0-22.6-22.8l-5-4.6-.6-.5c-1-1-2-2-2.4-3.4a216.6 216.6 0 0 1 49.5-196.2 47 47 0 0 0 9 9.6c1 .9 2.2 1 3.5 1l1 .2c7.9-16 22.6-25.9 38.5-32.8Zm370.7 178a51.4 51.4 0 0 0-46.7-20.6c7 18.2 12.8 36.1 13.4 55.8.8 21.4-4 43-12.3 62.6a60.5 60.5 0 0 0 41.6-22.3 64.3 64.3 0 0 0 14.9-41.3 56 56 0 0 0-11-34.3Z" fill="#000"/><path d="M519 186.7c21.5.9 42.9 5.5 63.2 12.2 7.4 2.5 14.7 5.5 21.4 9.5 1.6 1 3.5 1.8 5.4 1.2l3.9-1.8 3.3-1.5c8.1-3.3 17-5.2 25.8-5.2a92 92 0 0 1 80.3 46.5 74.4 74.4 0 0 1 9.7 39.6c-.3 2.1-.6 4.4 2 4.9l5-.3c2.4-.2 4.7-.4 7-.3 16.6.5 33.2 7.5 46.9 16.7a159.2 159.2 0 0 1 52 62A156.6 156.6 0 0 1 861 434c.3 17.6-3 35.5-12.6 50.5l-.8 1.5c-1.1 1.8-2.2 3.5-.4 5.7 13 17.2 22.3 37.5 27.7 58.3 5.1 20.3 7.4 43.4 1.7 63.8-6-1.1-11.7-2.3-16.9-5.6a66.7 66.7 0 0 1-19-17 28 28 0 0 1-3.7-8.6h-1.4c-1.2 0-2.1-.2-2.9 1.3-.5 2.7 1 5.7 2.2 8a58.6 58.6 0 0 0 15 16.2 51 51 0 0 0 14.5 8.7 97.9 97.9 0 0 0 27.8 4.2c4 .2 7.8.4 11.7 1.2a76.4 76.4 0 0 1 28 11.9 66 66 0 0 1 27 30.8 78.3 78.3 0 0 1 4.3 34.6c-.4 7.5-.8 14.9.5 22.5a43 43 0 0 0 14.3 27.9c6.4 5.4 14 8.6 22.5 9.2a52.7 52.7 0 0 1-35.4 16.2c-2.8 1.2-3.6 6.2-3.3 9 .6 12.6-2.2 25-7.3 36.5-8.2 18.3-22 33.7-38 45.8.7-8.1-1-16-4.9-23.2a54.1 54.1 0 0 0-29.2-24A69.4 69.4 0 0 0 858 815c-3-.2-4.7 3-3.5 5.4.7 1.2 1.6 2.3 2.4 3.4 1.1 1.6 2.3 3.2 3.2 5 7.3 13 8.8 28.1 6.2 42.6a88.6 88.6 0 0 1-25.8 48 75 75 0 0 1-40.8 20.7l-4.6.9c-1.3.8-1.4 2.2-1.6 3.6l-.1 1.3c-.5 7-4.7 12.3-9.8 16.6A55.7 55.7 0 0 1 748 975c3.5-4.5 6.1-9.2 7.4-14.9 3-12.7.6-27.7-9.3-37a39.4 39.4 0 0 0-29.5-10c-13.3.7-26 5.3-38.6 9.8-5 1.8-9.9 3.6-14.9 5.2-14.1 4.4-28 8.6-43 8a52.6 52.6 0 0 1-40.4-18.6 57.7 57.7 0 0 1-11.6-31.2 90.9 90.9 0 0 1 3-35c.5-1.8 1-3.5-.9-4.5-2.1-1-4 .6-5.6 1.9l-1 .8c-18.4 14.6-32.3 37-32.7 60.9-6.6-14.5-11.3-29-9.2-45a60 60 0 0 1 13.1-32.6c5.6-5.8 14-9.4 21.7-12.7l6-2.7 4.1-2c4.5-2 9-4 12.7-7 4-3 6.8-7 8.5-11.8 3.3-9.8 2.5-19.3.8-29.3a219.5 219.5 0 0 0-9.5-31.5c-4.3-12.1-8.6-24.2-10.5-37.7-.6-5.5-.5-11.2-.3-16.8v-.2c1-17.3 8.4-34.5 18-48.8A115 115 0 0 1 617 602l1-.6.8-.6c10.3-7 21-14.4 30.2-22.8a133 133 0 0 0 18.3-21.6 153.2 153.2 0 0 0 20.3-44.6c4-13 6.5-26.3 7.9-39.8.7-8.4.8-16.8-1.4-25.1-3.3-.8-6.9-.7-10.5-.6-2.5 0-5 .1-7.6-.1a66.6 66.6 0 0 1-30-11.2c-9-6-17.6-13-24.9-21.1a206 206 0 0 1-30.2-43.8 570 570 0 0 1-16.4-36.2l-.4-1a211 211 0 0 0-28.8-50.2c-8-10-17.7-18.6-28.3-25.6-14.9-9.6-31.1-16.1-49-16-11.8-.3-23.4 1.3-35 3.3a38.3 38.3 0 0 0-16.2 6.4c-1.1.8-1.1 2-1.1 3.2v1.4h.7c1.6.2 2.8.2 4.2-.8a40 40 0 0 1 17.8-5.6c7.2-1 14.3-2 21.6-2 9.3-.2 18.5-.1 27.5 2.6a107.2 107.2 0 0 1 42.1 24.8 143.9 143.9 0 0 1 28.2 37.8c-16.3-4.2-33-6.5-49.8-6.4a244 244 0 0 0-55.8 7.3 166.8 166.8 0 0 0-38 15.8l.3-2c.7-4.3 1.3-8.6 3-12.4a56.2 56.2 0 0 1 7.3-11.9c1-1.4 2-2.8 1.7-4.7a3.5 3.5 0 0 0-3.5-2.3c-4 .2-8 2-11.8 3.7l-.4.3c-9 4.3-17.5 9.6-24.6 16.6-4 3.8-7 8.1-10.3 12.6a69.7 69.7 0 0 1-9.3-78.3 90.1 90.1 0 0 1 32.4-36.4c23.9-16.1 53.8-23.6 82-26.5 12.7-1 25.2-2 38-.9Zm222.6 273.5c7 18.2 12.8 36.1 13.4 55.8a147.3 147.3 0 0 0 0 0c-.6-19.7-6.4-37.6-13.4-55.8Zm-379.3-141c-7.1-14-11-30.6-8.7-46.2-8.5-.6-17.2-.7-25.6 1a121 121 0 0 0-60.4 31.6 135.2 135.2 0 0 0-41.4 75.4A90.6 90.6 0 0 0 234 438c4.8-6.5 9.5-13 14.8-19.1 1.3-1.6 2.5-3.3 3.6-5l3-4.4c2-1 4.2.1 3.9 2.6-1.6 4.3-4.9 8.3-8 12l-2.3 3a216.5 216.5 0 0 0-16.3 23.6 120 120 0 0 0-16.2 39.2A115 115 0 0 0 215 526c1 9.9 3.3 19.5 7.9 28.2 3.6 7.1 8 13.4 12.5 19.5 5.3 7.3 10.5 14.5 14 23a64.2 64.2 0 0 1 4.4 28.7v.2c-.2 2.2-.4 4.7-2 6.4-1.4 1.4-4.7.4-4.4-1.9 1.1-9.5 1-20-2.4-29-3.3-8.9-9-16.8-14.8-24.8a209 209 0 0 1-8.9-12.9 57.9 57.9 0 0 1-62.3 37.4 39.2 39.2 0 0 1-30.3-21.4 40.5 40.5 0 0 1-2.8-22.5 42.5 42.5 0 0 0-11 42.4c2 6.2 5.9 12.3 12.3 14.6.4.3 1 .5 1.4.6 1.5.6 2.9 1 3.1 2.8.6 2-.8 3-2.2 4l-.2.2a41 41 0 0 0-15 22.8 65.2 65.2 0 0 0-.8 34.3c2.3 7.9 6 15.3 14 18.5 5-3.8 10-7.1 16-9.1 1.5-.5 2.9-.5 4.3-.6h.8l.3 1.2c.3 1.4.6 2.6-.7 3.7l-3.6 1.5c-3 1.2-6 2.4-8.6 4.3a76 76 0 0 0-26.2 34.7 119.3 119.3 0 0 0-6.9 65.5c2.4 12.7 7.4 26 16 35.8a34.5 34.5 0 0 0 26.1 12.7c2 0 4-.3 6-.7 2.2-.4 4.6-.9 7-.6 4.2 8.3 12.8 11.2 21 14-5.4-14-.6-28.7 9.1-39.3 1-1.2 4.4-1 5.2.4.3 1 .3 2.2.3 3.4v2.1a32.7 32.7 0 0 0 27.4 27.5c5.1.7 10 .4 14.9 0l6.1-.4a91 91 0 0 1 23.5 1.5c13.8 2.6 27 6.2 38.7 14.2 6 4.2 11.4 10 14.1 16.7 4.1 9.5 2.4 21.5-4.5 29.4-2.3 2.7-5.3 4.2-8.4 5.9l-.8.4c19.7 1.1 40-4 57.6-12.9a89.3 89.3 0 0 0 32.5-26.6c4.3-6.1 7-12.7 7.9-20.1-10.7 0-21.6-1.5-31.9-4.3-2.9-1-3-3.6-.6-5.4a13 13 0 0 1 5 .6l1.9.4c24.3 5.3 50.7 3.7 73.4-6.6a69.4 69.4 0 0 0 34.2-30.8 49.4 49.4 0 0 0 3-36.8c1.6-2.3 3.6-4.3 6.5-2.8a68.5 68.5 0 0 0 35 7 66.2 66.2 0 0 0 38.5-14.3c5-4.4 8.7-9.2 11.3-15.4l-5-14.8c-5.5-15.3-10.8-30-11.9-47.2-8.4 1.4-16.8 2-25.2 2.4l-4.8.3c-4.8.3-9.4 0-14-.3l-6.8-.5a224.4 224.4 0 0 1-139-62.5c-3 18-13.2 32.2-25.5 45-6.6 7-13.8 13.6-21 20.2a477.5 477.5 0 0 0-16.4 15.5 93.8 93.8 0 0 0-17 21c-2 3.8-3.7 8.4-2.3 12.7 1.6 6.9 7.2 11.5 12.9 15a25.4 25.4 0 0 0 8.7 3.2c1.4.4 3.1 1 3 2.8.3 1.6-1 2.8-2.6 2.8-7.6-.2-14-4.5-19.5-9.3-6-5.4-10-13.4-8.5-21.6 1.3-6.6 5.6-13 9.7-18.2 8-10 17.9-18.9 27.6-27.7 4.7-4.3 9.4-8.6 13.8-12.9a128 128 0 0 0 25-31c5.3-9.8 7.6-21 7.2-32.1-.8-20.8-10-40.5-22.5-56.8-6.8-9-14.8-16.4-22.9-24-4.3-3.9-8.6-8-12.8-12.3-4.3-4.4-7.2-10-9-16-.6-2.1-1-4.8-.2-7 1.8-1.4 3.9-.9 4.5 1.3.6 3.9 1.6 7.4 3.5 10.8a110 110 0 0 0-1-7.6c-.4-2.4-.8-4.8-1-7.2a223.9 223.9 0 0 1 56.4-178Zm369.6 128.3c3-1 4.6 2.3 6 5 .3.8.8 1.6 1.2 2.1a58.5 58.5 0 0 1 41.1 10.2A59.4 59.4 0 0 1 804 503c5.6 28-8.7 58.3-33.3 72.6a69.5 69.5 0 0 1-30.7 9.2c-1.1 1.8-2 3.6-3 5.5l-2.7 4.8c-2.8 5-6 9.9-9.3 14.8-6 9.2-12 18.5-15.6 28.4a36.6 36.6 0 0 0 0 27.4c2.6 6.2 7.1 10.7 12.2 14.8 5.6 4.2 11.6 7 17.7 9.9 4.6 2.1 9.3 4.4 14 7.3a56.8 56.8 0 0 1 25.6 29.5 60.5 60.5 0 0 1 2 27.3l-.1.5c-.7 5.3-1.4 11.2-3.8 16-.5 1.2-2.7 3-4 1.7-1.9-.5-1.2-3.3-.8-4.7 2-6 3-11.6 3.2-18 .7-7.5.4-15-2.4-22a50.5 50.5 0 0 0-20.8-24.2c-5-3.3-10.3-5.8-15.5-8.2-6.2-3-12.4-5.8-18-10.2-5.5-4-10.2-8.8-13.3-14.8a41.3 41.3 0 0 1-2-32.6c3.5-11 10.1-21 16.6-31 3.4-5.1 6.8-10.3 9.7-15.5a145 145 0 0 0 19.3-61.5c1.7-19-2-37.2-7.9-55.1a108.6 108.6 0 0 0-9.5-22.9c-1-1.7-1.7-3.1.4-4.5Z" fill="#85c2c6"/></g></g><g transform="translate(-161 -83)"></g></g></svg>